<?xml version="1.0" encoding="UTF-8"?><svg version="1.1" id="Layer_1" xmlns="http://www.w3.org/2000/svg" xmlns:xlink="http://www.w3.org/1999/xlink" x="0px" y="0px" viewBox="0 0 16 16" enable-background="new 0 0 16 16" xml:space="preserve"><path fill="#1D50B0" fill-rule="evenodd" clip-rule="evenodd" d="M1 0h14a1 1 0 0 1 1 1v14a1 1 0 0 1-1 1H1a1 1 0 0 1-1-1V1a1 1 0 0 1 1-1zm3.58 8.649v4.664h8.17l-1.068-4.846a2.688 2.688 0 0 0 1.568-2.444c-.008-1.795-1.818-3.107-3.527-2.558a2.687 2.687 0 0 0-1.863-.746 2.688 2.688 0 0 0-1.864.746c-1.71-.558-3.526.76-3.527 2.558a2.69 2.69 0 0 0 2.11 2.626zm3.5.852l-1.13.593.214-1.255-.914-.889 1.263-.183.565-1.142.565 1.142 1.263.183-.914.89.216 1.254-1.129-.593z" /></svg>