<svg id="noImage" xmlns="http://www.w3.org/2000/svg" viewBox="0 0 800 600">
  <path d="M477 211.5c-.1-25.6-26-44.4-50.4-36.5-7.2-6.9-16.7-10.7-26.6-10.7-9.9 0-19.5 3.8-26.6 10.7-24.4-8-50.4 10.9-50.4 36.5 0 18 12.5 33.6 30.1 37.5v66.6h116.7l-15.3-69.2c13.8-6.2 22.5-19.9 22.5-34.9zm-57.7 58.2l-16.1-8.5-16.1 8.5 3.1-17.9-13.2-12.7 18-2.6 8.1-16.3 8.1 16.3 18 2.6-13.1 12.7 3.2 17.9z" fill="#ababab"/>
  <path fill="#999" d="M319.6 349.3v-9.1h6.1v27.2h-5.2L307 350l.2 8.9v8.5h-6.1v-27.2h5.2l13.7 17.7-.4-8.6zM344.9 368.1c-6 0-11.8-3-13.8-8.9-1.9-5.7-.7-12.8 4.2-16.6 4.7-3.7 12.2-4 17.4-1.2 5.6 3 7.7 9.4 6.7 15.5-1.3 7.1-7.5 11.2-14.5 11.2zm0-23.1c-11.3 0-11.4 17.6 0 17.6s11.3-17.6 0-17.6zM373.3 340.2h6v27.2h-6v-27.2zM400.6 359.1h-1.1l-8.1-10.6v19h-6.1v-27.2h7l7.9 10.5 8-10.5h6.9v27.2H409v-18.9l-8.4 10.5zM426.5 362.8l-2 4.7H418l12.2-27.2h6.6l12.2 27.2h-6.6l-2-4.7h-13.9zm2.2-5.4h9.4l-4.7-11-4.7 11zM463.8 345.1c-6.1 0-9.6 5.2-8.3 11 1.4 6.4 9.1 8.3 14.1 4.6v-4.2h-6.5v-5.1h11.7v11.7c-3.7 5.3-11.5 6.2-17.3 4-5-1.9-7.9-6.7-8.2-11.9-.4-5.3 1.7-10.9 6.4-13.7 5.7-3.3 13.6-2.5 18.1 2.3l-3.8 3.8c-1.5-1.7-4-2.5-6.2-2.5zM479.7 367.4v-27.2h20.2v5.6h-14.2v5.2H499v5.3h-13.4v5.5h14.8v5.6h-20.7zM293.8 409.4l-2 4.7h-6.5l12.2-27.2h6.6l12.2 27.2h-6.6l-2-4.7h-13.9zm2.3-5.4h9.4l-4.7-11-4.7 11zM325.4 414.1L314 386.8h6.8l7.7 20.1 7.7-20.1h6.8l-11.3 27.3h-6.3zM349.2 409.4l-2 4.7h-6.5l12.2-27.2h6.6l12.2 27.2h-6.6l-2-4.7h-13.9zm2.3-5.4h9.4l-4.7-11-4.7 11zM374.6 386.8h6V414h-6v-27.2zM392.7 408.5h13.6v5.6h-19.7v-27.2h6.1v21.6zM415.3 409.4l-2 4.7h-6.5l12.2-27.2h6.6l12.2 27.2h-6.6l-2-4.7h-13.9zm2.3-5.4h9.4l-4.7-11-4.7 11zM463.5 394.2c0 2.3-1 4.4-3.6 5.6 3.3 1.2 4.9 4.6 4.3 7.9-.8 4.4-4.4 6.4-9.9 6.4h-13.6v-27.2h13.4c5.1-.1 9.4 2.3 9.4 7.3zm-9.5 3.2c4.5 0 4.5-5.3.1-5.3h-7.5v5.3h7.4zm.1 11.3c5.2 0 5-6.3-.1-6.3h-7.4v6.3h7.5zM475 408.5h13.6v5.6h-19.7v-27.2h6.1v21.6zM492.2 414v-27.2h20.2v5.6h-14.2v5.2h13.4v5.3h-13.4v5.5H513v5.6h-20.8z"/>
</svg>
